<svg width="1320" height="420" viewBox="0 0 1320 420" fill="none" xmlns="http://www.w3.org/2000/svg">
  <rect width="1320" height="420" fill="white"/>
  <g transform="translate(42 52)">
    <rect x="0" y="0" width="300" height="300" rx="64" fill="#F3F8FC"/>
    <path d="M58 150C58 108 92 74 134 74C167 74 195 96 216 125C237 154 265 176 298 176" stroke="#0F3D66" stroke-width="18" stroke-linecap="round"/>
    <path d="M298 150C298 192 264 226 222 226C189 226 161 204 140 175C119 146 91 124 58 124" stroke="#11A77A" stroke-width="18" stroke-linecap="round"/>
    <circle cx="58" cy="124" r="10" fill="#FF7A59"/>
    <circle cx="298" cy="176" r="10" fill="#FF7A59"/>
  </g>
  <text x="382" y="190" fill="#13253A" font-family="Avenir Next, Montserrat, Arial, sans-serif" font-size="114" font-weight="800">FounderNexus</text>
  <text x="388" y="252" fill="#4D647B" font-family="Avenir Next, Montserrat, Arial, sans-serif" font-size="34" font-weight="600" letter-spacing="3">INFINITE IDEAS. SHARED EXECUTION.</text>
</svg>
